<svg width="50" height="50" viewBox="0 0 50 50" fill="none" xmlns="http://www.w3.org/2000/svg">
<path d="M23.4286 4C17.7454 4.00007 12.2949 6.25765 8.27628 10.2763C4.25766 14.2949 2.00001 19.7454 2 25.4286C1.99997 31.1118 4.25766 36.5623 8.27629 40.5809C12.2949 44.5995 17.7453 46.8572 23.4286 46.8572L23.4285 36.8572C23.4285 35.2792 22.1151 34.0445 20.6239 33.5282C19.4096 33.1077 18.2936 32.4155 17.3676 31.4895C15.7602 29.8821 14.8571 27.7019 14.8572 25.4286C14.8571 23.1553 15.7602 20.9752 17.3677 19.3677C18.2937 18.4417 19.4096 17.7495 20.6239 17.329C22.1151 16.8126 23.4285 15.578 23.4286 14V4Z" fill="#297AFF"/>
<path d="M28.4795 4.2156L35.8972 11.6333C36.9688 12.7049 37.5709 14.1584 37.5709 15.6739L37.5709 35.1837C37.5709 36.6992 36.9688 38.1527 35.8972 39.2243L28.4795 46.642V4.2156Z" fill="#34C2FF"/>
<path d="M42.1165 17.8527L46.6622 22.3984C48.3359 24.0721 48.3359 26.7856 46.6622 28.4593L42.1165 33.005V17.8527Z" fill="#34C2FF"/>
</svg>
