<svg width="1600" height="900" viewBox="0 0 1600 900" fill="none" xmlns="http://www.w3.org/2000/svg">
<g clip-path="url(#clip0_2210_160)">
<path d="M1600 0H0V900H1600V0Z" fill="#282828"/>
<path d="M965 310H635C615.67 310 600 325.67 600 345V555C600 574.33 615.67 590 635 590H965C984.33 590 1000 574.33 1000 555V345C1000 325.67 984.33 310 965 310Z" fill="#4179F7"/>
<path d="M750 455C763.807 455 775 443.807 775 430C775 416.193 763.807 405 750 405C736.193 405 725 416.193 725 430C725 443.807 736.193 455 750 455Z" fill="white"/>
<path d="M850 455C863.807 455 875 443.807 875 430C875 416.193 863.807 405 850 405C836.193 405 825 416.193 825 430C825 443.807 836.193 455 850 455Z" fill="white"/>
<path d="M725 510L875 490" stroke="white" stroke-width="25" stroke-linecap="round"/>
</g>
<defs>
<clipPath id="clip0_2210_160">
<rect width="1600" height="900" fill="white"/>
</clipPath>
</defs>
</svg>
