<svg width="88" height="86" viewBox="0 0 88 86" fill="none" xmlns="http://www.w3.org/2000/svg">
<path d="M45 1.5H43C20.0802 1.5 1.5 20.0802 1.5 43C1.5 65.9198 20.0802 84.5 43 84.5H45C67.9198 84.5 86.5 65.9198 86.5 43C86.5 20.0802 67.9198 1.5 45 1.5Z" fill="#D9D9D9"/>
<path d="M44.0001 46.0833C52.5145 46.0833 59.4168 39.1811 59.4168 30.6667C59.4168 22.1523 52.5145 15.25 44.0001 15.25C35.4857 15.25 28.5835 22.1523 28.5835 30.6667C28.5835 39.1811 35.4857 46.0833 44.0001 46.0833ZM44.0001 46.0833C50.5421 46.0833 56.8162 48.6821 61.4421 53.308C66.068 57.9339 68.6668 64.208 68.6668 70.75M44.0001 46.0833C37.4581 46.0833 31.184 48.6821 26.5582 53.308C21.9323 57.9339 19.3335 64.208 19.3335 70.75" stroke="white" stroke-width="2" stroke-linecap="round" stroke-linejoin="round"/>
</svg>
